<svg xmlns="http://www.w3.org/2000/svg" width="104" height="152" viewBox="8865 13453 10415 15241" preserveAspectRatio="xMidYMid" style="stroke-linejoin:round;stroke-width:30">
  <defs class="ClipPathGroup">
    <clipPath clipPathUnits="userSpaceOnUse">
      <rect x="8865" y="13453" width="10415" height="15241"/>
    </clipPath>
  </defs>
  <defs class="TextShapeIndex"/>
  <defs class="EmbeddedBulletChars">
      <path d="M0.3-0.6L0.6-0.3 0.3 0 0-0.3 0.3-0.6Z"/>
      <path d="M0-0.6L0.6-0.6 0.6 0 0 0 0-0.6Z"/>
      <path d="M0.1 0L0.3-0.4 0.1-0.7 0.7-0.4 0.1 0ZM1358 739L309 1346 659 739 1358 739Z"/>
      <path d="M1-0.4L0.6 0 0.4 0 0.6-0.3 0.1-0.3 0.1-0.5 0.6-0.5 0.4-0.7 0.6-0.7 1-0.4Z"/>
      <path d="M0 0C0 0 0 0 0 0L0.2-0.3C0.1-0.4 0.1-0.5 0.1-0.5 0.1-0.5 0.1-0.5 0.1-0.5 0.1-0.5 0.1-0.5 0.1-0.5 0.2-0.5 0.2-0.5 0.2-0.5L0.2-0.5 0.2-0.4 0.4-0.5 0.4-0.5 0.4-0.5C0.4-0.5 0.4-0.5 0.5-0.5 0.4-0.5 0.4-0.4 0.4-0.4 0.4-0.4 0.3-0.3 0.3-0.3L0.4-0.1C0.4-0.1 0.4-0.1 0.3-0.1L0.4-0.1C0.4 0 0.3 0 0.3 0 0.3 0 0.3-0.1 0.2-0.2L0.1 0C0.1 0.1 0.1 0.1 0 0.1 0 0.1 0 0.1 0 0 0 0 0 0 0 0 0 0 0 0 0 0Z"/>
      <path d="M0.1 0C0.1 0 0.1 0 0-0.1 0-0.1 0-0.2 0-0.2 0-0.3 0-0.3 0-0.3 0.1-0.4 0.1-0.4 0.1-0.4 0.1-0.4 0.2-0.4 0.2-0.3L0.2-0.2C0.2-0.2 0.2-0.2 0.2-0.2L0.6-0.5C0.6-0.6 0.6-0.6 0.6-0.6 0.6-0.6 0.6-0.5 0.6-0.5L0.6-0.5C0.6-0.5 0.6-0.4 0.6-0.4L0.2 0C0.2 0 0.2 0 0.1 0Z"/>
      <path d="M0.4 0C0.3 0 0.2 0 0.2-0.1 0.1-0.1 0.1-0.2 0.1-0.3 0.1-0.4 0.1-0.4 0.2-0.5 0.2-0.6 0.3-0.6 0.4-0.6 0.5-0.6 0.6-0.6 0.6-0.5 0.7-0.4 0.7-0.4 0.7-0.3 0.7-0.2 0.7-0.1 0.6-0.1 0.6 0 0.5 0 0.4 0Z"/>
      <path d="M0.2-0.2C0.1-0.2 0.1-0.2 0.1-0.3 0-0.3 0-0.3 0-0.4 0-0.4 0-0.4 0.1-0.4 0.1-0.5 0.1-0.5 0.2-0.5 0.2-0.5 0.2-0.5 0.3-0.4 0.3-0.4 0.3-0.4 0.3-0.4 0.3-0.3 0.3-0.3 0.3-0.3 0.2-0.2 0.2-0.2 0.2-0.2Z"/>
      <path d="M0-0.2L0.6-0.2 0.6-0.3 0-0.3 0-0.2Z"/>
  </defs>
  <defs class="TextEmbeddedBitmaps"/>
  <g class="SlideGroup">
      <g class="Slide" clip-path="url(#presentation_clip_path)">
        <g class="Page">
          <g class="com.sun.star.drawing.CustomShape">
              <rect class="BoundingBox" x="8865" y="13453" width="10416" height="15242" fill="none"/>
              <path d="M8865 28694L19280 28694 15807 13453 12338 13453 8865 28694ZM8865 28694L8865 28694ZM19280 13453L19280 13453Z" fill="rgb(226,67,41)"/>
          </g>
        </g>
      </g>
  </g>
</svg>
